<svg width="16" height="18" viewBox="0 0 16 18" fill="none" xmlns="http://www.w3.org/2000/svg">
<path fill-rule="evenodd" clip-rule="evenodd" d="M15.7874 9.28302L8.70874 0.28555C8.40876 -0.0951833 7.78911 -0.0951833 7.48912 0.28555L0.414822 9.27843C0.337244 9.37217 0.279767 9.48444 0.249289 9.60805C0.232741 9.67505 0.224568 9.74362 0.22461 9.81204V9.81258C0.22461 10.2654 0.576559 10.6314 1.01197 10.6314H3.37523V17.1809V17.1816C3.37523 17.6344 3.72718 18.0004 4.16259 18.0004C4.17356 18.0004 4.18447 18.0002 4.19533 17.9997H12.0028C12.0136 18.0002 12.0246 18.0004 12.0355 18.0004C12.2542 18.0004 12.4519 17.908 12.5945 17.7587C12.7361 17.6107 12.8235 17.4066 12.8235 17.1809C12.8235 17.1696 12.8233 17.1583 12.8229 17.147V10.6314H15.1865C15.5375 10.6314 15.8342 10.3936 15.9361 10.0642C16.0096 9.82755 15.9782 9.56088 15.8337 9.34561C15.8192 9.32396 15.8038 9.30307 15.7874 9.28302Z" fill="#4CD62B"/>
</svg>
