<svg width="74" height="81" viewBox="0 0 74 81" fill="none" xmlns="http://www.w3.org/2000/svg">
<path d="M36.8671 80.96C57.0834 80.96 73.7698 64.2736 73.7698 44.0573C73.7698 32.5408 68.0294 21.6305 59.4009 15.1413C57.4756 13.5725 55.1224 13.8577 53.9457 15.5335C52.6622 17.2806 53.2326 19.3842 54.8728 20.8461C61.8968 26.2299 66.3536 34.5375 66.3893 44.0573C66.4249 60.4229 53.2326 73.5795 36.8671 73.5795C20.5015 73.5795 7.4162 60.4229 7.4162 44.0573C7.4162 30.2233 16.7578 18.7068 29.5222 15.4622V20.6321C29.5222 23.3776 31.5545 24.1263 33.7651 22.5218L45.8164 14.0004C47.5992 12.6811 47.6348 10.6845 45.8164 9.40088L33.8008 0.84374C31.5545 -0.760725 29.5222 -0.0476292 29.5222 2.73344V7.93904C12.7644 11.3976 0 26.3726 0 44.0573C0 64.2736 16.6865 80.96 36.8671 80.96Z" fill="#CFD5E2"/>
<path fill-rule="evenodd" clip-rule="evenodd" d="M53.611 34.3642C54.5716 35.355 54.5716 36.9614 53.611 37.9522L35.5724 56.5578C34.6118 57.5486 33.0543 57.5486 32.0937 56.5578L23.8943 48.1007C22.9337 47.1099 22.9337 45.5035 23.8943 44.5127C24.8549 43.5219 26.4124 43.5219 27.373 44.5127L33.833 51.1757L50.1323 34.3642C51.0929 33.3734 52.6504 33.3734 53.611 34.3642Z" fill="#279F2D"/>
</svg>
