<svg width="20" height="21" viewBox="0 0 20 21" fill="none" xmlns="http://www.w3.org/2000/svg">
<path d="M10.0958 20.6943C15.0899 20.6943 19.2121 16.5722 19.2121 11.5781C19.2121 8.73308 17.794 6.03783 15.6624 4.43478C15.1868 4.04722 14.6055 4.11769 14.3148 4.53166C13.9977 4.96326 14.1386 5.48293 14.5438 5.84406C16.279 7.17406 17.38 9.22633 17.3888 11.5781C17.3976 15.6209 14.1386 18.8711 10.0958 18.8711C6.05289 18.8711 2.82035 15.6209 2.82035 11.5781C2.82035 8.16056 5.12805 5.31558 8.28131 4.51405V5.79121C8.28131 6.46942 8.78337 6.65439 9.32947 6.25803L12.3066 4.15292C12.747 3.82702 12.7558 3.33378 12.3066 3.01669L9.33827 0.90277C8.78337 0.50641 8.28131 0.68257 8.28131 1.36959V2.65556C4.14155 3.50994 0.988281 7.20929 0.988281 11.5781C0.988281 16.5722 5.11043 20.6943 10.0958 20.6943Z" fill="#8D51D8"/>
<path fill-rule="evenodd" clip-rule="evenodd" d="M9.63416 7.73438C10.1117 7.73438 10.4988 8.12148 10.4988 8.599V12.2828L13.0384 13.7835C13.4496 14.0264 13.5859 14.5566 13.343 14.9677C13.1 15.3788 12.5698 15.5152 12.1587 15.2722L9.1943 13.5205C8.93104 13.365 8.76953 13.0819 8.76953 12.7761V8.599C8.76953 8.12148 9.15664 7.73438 9.63416 7.73438Z" fill="#4C52FA"/>
</svg>
