<svg xmlns="http://www.w3.org/2000/svg" width="111" height="88" fill="none" viewBox="0 0 111 88"><path fill="#555760" d="M89.456 18.848v10.797c0 .894-.722 1.62-1.612 1.62h-12.62c-.889 0-1.61-.726-1.61-1.62V18.848c0-.896.721-1.62 1.61-1.62h12.62c.89 0 1.612.724 1.612 1.62zm-81.2-1.621h-6.08c-.89 0-1.612.724-1.612 1.62v10.796c0 .895.722 1.62 1.612 1.62h6.08c.89 0 1.612-.725 1.612-1.62V18.846c0-.894-.722-1.62-1.612-1.62zm102.308 1.62v10.797c0 .894-.721 1.62-1.611 1.62h-6.08a1.616 1.616 0 0 1-1.611-1.62V18.847c0-.896.722-1.62 1.611-1.62h6.08c.89 0 1.611.724 1.611 1.62z"/><path fill="#2E384D" d="M110.564 24.403v5.241c0 .894-.721 1.62-1.611 1.62h-6.08a1.616 1.616 0 0 1-1.611-1.62v-5.24c0 .893.722 1.619 1.611 1.619h6.08c.89 0 1.611-.726 1.611-1.62zM9.867 24.402v5.241c0 .894-.722 1.62-1.611 1.62h-6.08c-.89 0-1.612-.726-1.612-1.62v-5.24c0 .893.722 1.619 1.612 1.619h6.08c.89 0 1.611-.726 1.611-1.62zm79.589 1.621v3.622c0 .894-.722 1.62-1.612 1.62h-12.62c-.889 0-1.61-.726-1.61-1.62v-3.622h15.842z"/><path fill="#3FB023" d="M15.234 10.254v27.983c0 1.192-.481 2.27-1.259 3.052a4.262 4.262 0 0 1-3.036 1.263 4.307 4.307 0 0 1-4.295-4.315V10.254a4.307 4.307 0 0 1 4.295-4.315c2.372 0 4.295 1.931 4.295 4.315z"/><path fill="#4CD62B" d="M15.234 10.254v27.983c0 1.192-.481 2.27-1.259 3.052a4.262 4.262 0 0 1-3.036 1.263c-.782 0-1.514-.21-2.146-.579.327-.188.625-.419.89-.684a4.318 4.318 0 0 0 1.256-3.052V10.254c0-1.598-.863-2.99-2.146-3.736a4.236 4.236 0 0 1 2.146-.579c2.372 0 4.295 1.931 4.295 4.315z"/><path fill="#3FB023" d="M104.495 10.253v27.983c0 1.193-.482 2.27-1.259 3.052a4.263 4.263 0 0 1-3.036 1.263 4.307 4.307 0 0 1-4.295-4.315V10.253a4.307 4.307 0 0 1 4.295-4.315c2.372 0 4.295 1.931 4.295 4.315z"/><path fill="#4DD82B" d="M104.495 10.253v27.983c0 1.193-.482 2.27-1.259 3.052a4.263 4.263 0 0 1-3.036 1.263c-.782 0-1.515-.21-2.146-.579.326-.188.625-.419.89-.684a4.318 4.318 0 0 0 1.256-3.051V10.252c0-1.598-.864-2.99-2.146-3.736a4.236 4.236 0 0 1 2.146-.579c2.372 0 4.295 1.931 4.295 4.315z"/><path fill="#FFD3C0" d="M76.835 18.705v10.94c0 .355-.118.703-.335.986l-8.426 10.991 2.505 26.351a1.63 1.63 0 0 1-.412 1.244c-.305.337-.737.53-1.193.53h-26.82c-.456 0-.888-.193-1.193-.53a1.632 1.632 0 0 1-.413-1.244l.458-4.806.081-.864 1.94-20.426-8.097-6.284a1.621 1.621 0 0 1-.627-1.28V12.466c0-.894.722-1.62 1.611-1.62h33.099c4.312 0 7.822 3.525 7.822 7.859z"/><path fill="#FFB9A1" d="M76.836 18.705v10.94c0 .355-.118.703-.335.986l-8.426 10.991 2.505 26.351a1.63 1.63 0 0 1-.412 1.244 1.61 1.61 0 0 1-1.193.53h-26.82c-.456 0-.888-.193-1.193-.53a1.63 1.63 0 0 1-.413-1.244l.458-4.806.082-.864h22.085c.456 0 .888-.192 1.193-.53a1.63 1.63 0 0 0 .412-1.243l-1.645-19.01 9.285-12.286c.217-.283.335-.63.335-.99V17.309c0-2.676-2.625-5.043-4.664-6.461h.924c4.312 0 7.822 3.524 7.822 7.858z"/><path fill="#555760" d="M68.003 18.847v5.83c0 .314-.09.622-.262.884l-.3.462-2.925 4.504c-.296.46-.806.737-1.35.737H23.284c-.89 0-1.611-.726-1.611-1.62V18.847c0-.434.172-.848.479-1.153a1.603 1.603 0 0 1 1.151-.466H66.41a1.615 1.615 0 0 1 1.594 1.62z"/><path fill="#2E384D" d="M21.672 26.023H67.44l-2.924 4.505c-.296.46-.806.736-1.35.736H23.284c-.89 0-1.611-.725-1.611-1.62v-3.62z"/><path fill="#4953B8" d="M24.896 4.854v38.78c0 2.678-2.166 4.855-4.83 4.855a4.76 4.76 0 0 1-2.415-.654 4.851 4.851 0 0 1-2.417-4.2V4.855c0-1.795.974-3.363 2.417-4.2A4.76 4.76 0 0 1 20.066 0c2.664 0 4.83 2.177 4.83 4.854z"/><path fill="#5965E0" d="M24.896 4.854v38.78c0 2.678-2.166 4.855-4.83 4.855a4.76 4.76 0 0 1-2.415-.654 4.857 4.857 0 0 0 2.415-4.2V4.855a4.857 4.857 0 0 0-2.415-4.2A4.76 4.76 0 0 1 20.066 0c2.664 0 4.83 2.177 4.83 4.854z"/><path fill="#5297E8" d="M95.895 4.854v38.78c0 2.678-2.166 4.855-4.83 4.855a4.76 4.76 0 0 1-2.415-.654 4.851 4.851 0 0 1-2.417-4.2V4.855c0-1.795.974-3.363 2.417-4.2A4.76 4.76 0 0 1 91.065 0c2.664 0 4.83 2.177 4.83 4.854z"/><path fill="#5965E0" d="M95.895 4.854v38.78c0 2.678-2.166 4.855-4.83 4.855a4.76 4.76 0 0 1-2.415-.654 4.857 4.857 0 0 0 2.415-4.2V4.855a4.857 4.857 0 0 0-2.415-4.2A4.76 4.76 0 0 1 91.065 0c2.664 0 4.83 2.177 4.83 4.854z"/><path fill="#FFD3C0" d="M38.516 6.603c-2.326 0-4.212 1.895-4.212 4.233v9.333c0 2.338 1.886 4.234 4.212 4.234 2.327 0 4.213-1.896 4.213-4.234v-9.333c0-2.338-1.886-4.233-4.213-4.233z"/><path fill="#FFB9A1" d="M46.941 6.603c-2.327 0-4.213 1.895-4.213 4.233v9.333c0 2.338 1.886 4.234 4.213 4.234 2.326 0 4.212-1.896 4.212-4.234v-9.333c0-2.338-1.886-4.233-4.212-4.233z"/><path fill="#FFD3C0" d="M55.367 6.603c-2.327 0-4.213 1.895-4.213 4.233v9.333c0 2.338 1.886 4.234 4.213 4.234 2.326 0 4.212-1.896 4.212-4.234v-9.333c0-2.338-1.886-4.233-4.212-4.233z"/><path fill="#FFB9A1" d="M63.791 6.603c-2.326 0-4.212 1.895-4.212 4.233v9.333c0 2.338 1.886 4.234 4.212 4.234 2.327 0 4.213-1.896 4.213-4.234v-9.333c0-2.338-1.886-4.233-4.213-4.233z"/><path fill="#EEF6FF" d="M77.29 87.456a1.614 1.614 0 0 1-1.205.544h-41.04a1.615 1.615 0 0 1-1.6-1.81l.449-3.804 1.701-14.449a1.613 1.613 0 0 1 1.6-1.43h36.74c.818 0 1.505.616 1.6 1.43l2.15 18.254c.054.46-.09.92-.395 1.265z"/><path fill="#DAE6EF" d="M77.29 87.456a1.614 1.614 0 0 1-1.205.544h-41.04a1.615 1.615 0 0 1-1.6-1.81l.449-3.804h35.752a1.618 1.618 0 0 0 1.599-1.81l-1.42-12.639a1.617 1.617 0 0 0-1.601-1.43h5.71c.819 0 1.506.616 1.6 1.43l2.151 18.254c.054.46-.09.92-.395 1.265z"/></svg>