<svg xmlns="http://www.w3.org/2000/svg" width="153" height="78" fill="none" viewBox="0 0 153 78"><path fill="#D8ECFE" d="M76.564 0c-53.743.952-76 39-76 39s22.257 38.048 76 39c53.744-.952 76-39 76-39s-22.256-38.048-76-39z"/><path fill="#C4E2FF" d="M143.108 27.337c.699 1.022 1.041 1.607 1.041 1.607s-22.256 38.047-76 39C34.132 67.34 12.734 51.878 1.605 40.607c4.95 7.242 27.866 36.559 74.96 37.394 53.743-.953 76-39 76-39s-3.004-5.128-9.457-11.664z"/><path fill="#0182FC" d="M76.564 78c21.629 0 39.161-17.46 39.161-39S98.193 0 76.565 0c-21.63 0-39.163 17.46-39.163 39s17.533 39 39.161 39z"/><path fill="#465A61" d="M76.565 60.79c-12.064 0-21.88-9.776-21.88-21.79 0-12.015 9.816-21.79 21.88-21.79 12.065 0 21.88 9.775 21.88 21.79 0 12.014-9.815 21.79-21.88 21.79z"/><path fill="#D8ECFE" d="M89.632 36.527c-5.837 0-10.585-4.729-10.585-10.541 0-5.813 4.748-10.542 10.585-10.542 5.837 0 10.585 4.73 10.585 10.542 0 5.812-4.748 10.541-10.585 10.541z"/><path fill="#0172FB" d="M98.742 6.855a38.709 38.709 0 0 1 6.885 22.088c0 21.539-17.534 39-39.161 39a39.09 39.09 0 0 1-22.179-6.856C51.35 71.302 63.17 78 76.564 78c21.628 0 39.161-17.462 39.161-39 0-13.34-6.726-25.112-16.983-32.145z"/></svg>