<svg width="18" height="21" viewBox="0 0 18 21" fill="none" xmlns="http://www.w3.org/2000/svg">
<path d="M6.85419 0.20558C3.75313 -0.529124 2.19518 0.900187 1.51649 1.44341L2.87079 13.9046C3.08549 13.4118 4.69846 11.8881 6.77864 11.6213C10.8668 11.0969 12.9402 13.9905 17.5698 11.7324C16.1073 7.94269 18.7374 4.58569 16.191 0.0786959C11.0849 2.78495 9.50976 0.834741 6.85419 0.20558Z" fill="#F78650"/>
<path d="M9.53279 2.95251L10.8635 4.75603L13.0924 4.99093L11.7884 6.81381L12.2538 9.00626L10.1171 8.32935L8.17582 9.44946L8.15934 7.20822L6.49415 5.70804L8.6206 4.99979L9.53279 2.95251Z" fill="#F2ECB4"/>
<path fill-rule="evenodd" clip-rule="evenodd" d="M1.43246 0.668123C1.91142 0.616069 2.34189 0.962144 2.39394 1.4411L4.33779 19.3269C4.38984 19.8059 4.04377 20.2363 3.56481 20.2884C3.08585 20.3404 2.65538 19.9944 2.60333 19.5154L0.659478 1.62961C0.607424 1.15065 0.953499 0.720177 1.43246 0.668123Z" fill="#4E2F21"/>
</svg>
