<svg width="18" height="19" viewBox="0 0 18 19" fill="none" xmlns="http://www.w3.org/2000/svg">
<path d="M17.25 2.68332C16.5318 3.18993 15.7366 3.57741 14.895 3.83082C14.4433 3.31146 13.843 2.94334 13.1753 2.77627C12.5076 2.60919 11.8046 2.65122 11.1616 2.89666C10.5185 3.14211 9.96633 3.57912 9.57974 4.14861C9.19314 4.7181 8.99077 5.39258 9 6.08082V6.83082C7.68198 6.865 6.37596 6.57268 5.19826 5.97991C4.02056 5.38713 3.00774 4.5123 2.25 3.43332C2.25 3.43332 -0.75 10.1833 6 13.1833C4.4554 14.2318 2.61537 14.7575 0.75 14.6833C7.5 18.4333 15.75 14.6833 15.75 6.05832C15.7493 5.84941 15.7292 5.64102 15.69 5.43582C16.4555 4.68094 16.9956 3.72786 17.25 2.68332V2.68332Z" fill="white"/>
</svg>
