<svg width="20" height="20" viewBox="0 0 20 20" fill="none" xmlns="http://www.w3.org/2000/svg">
<path fill-rule="evenodd" clip-rule="evenodd" d="M15.8839 5.88388C16.372 5.39573 16.372 4.60427 15.8839 4.11612C15.3957 3.62796 14.6043 3.62796 14.1161 4.11612L10 8.23223L5.88388 4.11612C5.39573 3.62796 4.60427 3.62796 4.11612 4.11612C3.62796 4.60427 3.62796 5.39573 4.11612 5.88388L8.23223 10L4.11612 14.1161C3.62796 14.6043 3.62796 15.3957 4.11612 15.8839C4.60427 16.372 5.39573 16.372 5.88388 15.8839L10 11.7678L14.1161 15.8839C14.6043 16.372 15.3957 16.372 15.8839 15.8839C16.372 15.3957 16.372 14.6043 15.8839 14.1161L11.7678 10L15.8839 5.88388Z" fill="#2E384D" fill-opacity="0.58"/>
</svg>
